# AST/ASF file generated using VICON BodyLanguage
# -----------------------------------------------
:version 1.10
:name VICON
:units
  mass 1.0
  length 0.45
  angle deg
:documentation
   .ast/.asf automatically generated from VICON data using
   VICON BodyBuilder and BodyLanguage model FoxedUp or BRILLIANT.MOD
:root
   order TX TY TZ RX RY RZ
   axis XYZ
   position 0 0 0  
   orientation 0 0 0 
:bonedata
  begin
     id 1 
     name lhipjoint
     direction 0.621036 -0.695554 0.361275 
     length 2.46325 
     axis 0 0 0  XYZ
  end
  begin
     id 2 
     name lfemur
     direction 0.34202 -0.939693 0  
     length 6.54784  
     axis 0 0 20  XYZ
    dof rx ry rz
    limits (-160.0 20.0)
           (-70.0 70.0)
           (-60.0 70.0)
  end
  begin
     id 3 
     name ltibia
     direction 0.34202 -0.939693 0   
     length 7.84737   
     axis 0 0 20   XYZ
    dof rx
    limits (-10.0 170.0)
  end
  begin
     id 4 
     name lfoot
     direction 0.0790693 -0.217241 0.97291   
     length 2.59747   
     axis -90 7.62852e-016 20   XYZ
    dof rx rz
    limits (-45.0 90.0)
           (-70.0 20.0)
  end
  begin
     id 5 
     name ltoes
     direction 1.53572e-011 -4.21898e-011 1   
     length 1.29919   
     axis -90 7.62852e-016 20   XYZ
    dof rx
    limits (-90.0 20.0)
  end
  begin
     id 6 
     name rhipjoint
     direction -0.602353 -0.708375 0.367935   
     length 2.41867  
     axis 0 0 0  XYZ 
  end
  begin
     id 7 
     name rfemur
     direction -0.34202 -0.939693 0   
     length 6.92065   
     axis 0 0 -20   XYZ
    dof rx ry rz
    limits (-160.0 20.0)
           (-70.0 70.0)
           (-70.0 60.0)
  end
  begin
     id 8 
     name rtibia
     direction -0.34202 -0.939693 0   
     length 7.88883   
     axis 0 0 -20   XYZ
    dof rx
    limits (-10.0 170.0)
 end
 begin
     id 9 
     name rfoot
     direction -0.0768692 -0.211196 0.974416   
     length 2.43714  
     axis -90 -7.62852e-016 -20   XYZ
    dof rx rz
    limits (-45.0 90.0)
           (-20.0 70.0)
  end
  begin
     id 10 
     name rtoes
     direction -1.53575e-011 -4.21933e-011 1   
     length 1.22113   
     axis -90 -7.62852e-016 -20   XYZ
    dof rx
    limits (-90.0 20.0)
  end
  begin
     id 11 
     name lowerback
     direction 0.0197937 0.98943 -0.143655   
     length 2.16931   
     axis 0 0 0   XYZ
    dof rx ry rz
    limits (-20.0 45.0)
           (-30.0 30.0)
           (-30.0 30.0)
  end
  begin
     id 12 
     name upperback
     direction -0.00183968 0.999975 0.00684288   
     length 2.17221   
     axis 0 0 0   XYZ
    dof rx ry rz
    limits (-20.0 45.0)
           (-30.0 30.0)
           (-30.0 30.0)
  end
  begin
     id 13 
     name thorax
     direction -0.00950244 0.997208 0.0740685   
     length 2.22549   
     axis 0 0 0   XYZ
    dof rx ry rz
    limits (-20.0 45.0)
           (-30.0 30.0)
           (-30.0 30.0)
  end
  begin
     id 14 
     name lowerneck
     direction 0.0218238 0.996215 0.0841425   
     length 1.77269   
     axis 0 0 0   XYZ
    dof rx ry rz
    limits (-20.0 45.0)
           (-30.0 30.0)
           (-30.0 30.0)
  end
  begin
     id 15 
     name upperneck
     direction -0.00430652 0.994214 -0.107332   
     length 1.76534   
     axis 0 0 0   XYZ
    dof rx ry rz
    limits (-20.0 45.0)
           (-30.0 30.0)
           (-30.0 30.0)
  end
  begin
     id 16
     name head
     direction -0.00328946 0.998959 -0.0454998  
     length 1.82634  
     axis 0 0 0   XYZ
    dof rx ry rz
    limits (-20.0 45.0)
           (-30.0 30.0)
           (-30.0 30.0)
  end
  begin
     id 17 
     name lclavicle
     direction 0.970962 0.239191 0.00450212  
     length 3.84872  
     axis 0 0 0   XYZ
    dof ry rz
    limits (-20.0 10.0)
           (0.0 20.0)
  end
  begin
     id 18 
     name lhumerus
     direction 1 -4.48966e-011 5.74696e-028   
     length 5.22771   
     axis 180 -30 -90   XYZ
    dof rx ry rz
    limits (-60.0 90.0)
           (-90.0 90.0)
           (-90.0 90.0)
  end
  begin
     id 19
     name lradius
     direction 1 -4.4896e-011 4.25109e-027   
     length 3.45251   
     axis 180 -30 -90   XYZ
    dof rx
    limits (-10.0 170.0)
  end
  begin
     id 20
     name lwrist
     direction 1 -4.48971e-011 1.15382e-027   
     length 1.72626   
     axis -5.52449e-016 90 90   XYZ
    dof ry
    limits (-180.0 0.0)
 end
  begin
     id 21 
     name lhand
     direction 1 -4.49034e-011 2.30765e-027   
     length 0.552119   
     axis -1.47248e-015 90 90   XYZ
    dof rx rz
    limits (-90.0 90.0)
           (-45.0 45.0)
  end
  begin
     id 22 
     name lfingers
     direction 1 -4.48951e-011 4.61529e-027   
     length 0.445133   
     axis -2.94495e-015 90 90   XYZ
    dof rx
    limits (0.0 90.0)
  end
  begin
     id 23
     name lthumb
     direction 0.707107 -6.34991e-011 0.707107   
     length 0.639124   
     axis -90 45 2.85299e-015   XYZ
    dof rx rz
    limits (-45.0 45.0)
           (-45.0 45.0)
  end
  begin
     id 24 
     name rclavicle
     direction -0.97424 0.222511 -0.0366699   
     length 3.73439  
     axis 0 0 0   XYZ 
    dof ry rz
    limits (-10.0 20.0)
           (-20.0 0.0)
  end
  begin
     id 25 
     name rhumerus
     direction -1 -4.48956e-011 -4.97258e-028  
     length 5.2398   
     axis 180 30 90   XYZ
    dof rx ry rz
    limits (-90.0 60.0)
           (-90.0 90.0)
           (-90.0 90.0)
  end
  begin
     id 26 
     name rradius
     direction -1 -4.4897e-011 -1.72611e-027   
     length 3.48042   
     axis 180 30 90   XYZ
    dof rx
    limits (-10.0 170.0)
  end
  begin
     id 27 
     name rwrist
     direction -1 -4.48976e-011 1.15382e-027   
     length 1.74021   
     axis -5.52449e-016 -90 -90   XYZ
    dof ry
    limits (-180.0 0.0)
  end
  begin
     id 28
     name rhand
     direction -1 -4.48963e-011 2.30765e-027   
     length 0.618713   
     axis -1.47248e-015 -90 -90   XYZ
    dof rx rz
    limits (-90.0 90.0)
           (-45.0 45.0)
  end
  begin
     id 29
     name rfingers
     direction -1 -4.4888e-011 4.61529e-027   
     length 0.498823   
     axis -2.94495e-015 -90 -90   XYZ
    dof rx
    limits (0.0 90.0)
  end
  begin
     id 30
     name rthumb
     direction -0.707107 -6.34968e-011 0.707107   
     length 0.716213   
     axis -90 -45 -2.85299e-015   XYZ
    dof rx rz
    limits (-45.0 45.0)
           (-45.0 45.0)
  end
:hierarchy
  begin
    root lhipjoint rhipjoint lowerback
    lhipjoint lfemur
    lfemur ltibia
    ltibia lfoot
    lfoot ltoes
    rhipjoint rfemur
    rfemur rtibia
    rtibia rfoot
    rfoot rtoes
    lowerback upperback
    upperback thorax
    thorax lowerneck lclavicle rclavicle
    lowerneck upperneck
    upperneck head
    lclavicle lhumerus
    lhumerus lradius
    lradius lwrist
    lwrist lhand lthumb
    lhand lfingers
    rclavicle rhumerus
    rhumerus rradius
    rradius rwrist
    rwrist rhand rthumb
    rhand rfingers
  end

#!OML:ASF G:\JayActor3\Patient Classification 1\Patient 1\Session 5\male.ASF
:FULLY-SPECIFIED
:DEGREES
464
root 43.5014 16.4609 -4.62641 -11.5294 -79.3017 5.39912
lowerback 5.03975 -0.936761 -1.38122
upperback 3.49009 -1.37911 -2.09458
thorax 0.742601 -0.726615 -1.31686
lowerneck -5.33478 0.36003 2.88433
upperneck 8.9023 0.049004 1.23434
head 3.84814 0.153984 -0.0989866
rclavicle 3.55328e-015 -1.98785e-014
rhumerus -37.7863 -11.4373 -86.5338
rradius 28.6928
rwrist 1.69753
rhand -17.9228 -9.68494
rfingers 7.12502
rthumb 8.34482 -39.5001
lclavicle 3.55328e-015 -1.98785e-014
lhumerus -34.8846 10.9817 81.6965
lradius 22.4155
lwrist 16.0488
lhand -17.7847 13.1815
lfingers 7.12502
lthumb 8.47814 42.9913
rfemur -56.5278 10.1239 20.0291
rtibia 34.1595
rfoot -32.1274 -13.2234
rtoes -16.7215
lfemur 18.2343 11.156 -26.51
ltibia 1.74931e-014
lfoot -10.3503 2.96186
ltoes 3.83469
465
root 43.479 16.4564 -4.6236 -11.9161 -79.3497 5.8435
lowerback 5.01834 -0.905033 -1.43846
upperback 3.45434 -1.33898 -2.12986
thorax 0.718751 -0.706889 -1.32268
lowerneck -5.2841 0.356256 2.9065
upperneck 8.90891 0.0446246 1.21911
head 3.84053 0.151555 -0.108173
rclavicle 2.98425e-014 -3.97569e-015
rhumerus -37.7608 -11.3223 -86.6227
rradius 28.7367
rwrist 1.65878
rhand -17.9318 -9.71174
rfingers 7.12502
rthumb 8.33619 -39.5272
lclavicle 2.98425e-014 -3.97569e-015
lhumerus -34.9462 10.9374 81.6616
lradius 22.4164
lwrist 16.0549
lhand -17.8154 13.138
lfingers 7.12502
lthumb 8.44847 42.949
rfemur -56.4212 10.061 20.0775
rtibia 34.0791
rfoot -32.0838 -13.2135
rtoes -16.913
lfemur 18.2638 11.2156 -26.58
ltibia 2.06736e-014
lfoot -10.3907 2.97988
ltoes 3.69254
466
root 43.4559 16.4517 -4.62071 -12.3032 -79.392 6.28266
lowerback 4.99047 -0.877856 -1.49746
upperback 3.42419 -1.30475 -2.1619
thorax 0.704273 -0.690221 -1.32413
lowerneck -5.23766 0.354839 2.93197
upperneck 8.91967 0.0433782 1.19868
head 3.83527 0.150637 -0.119497
rclavicle -6.08778e-015 3.18055e-015
rhumerus -37.7266 -11.2134 -86.7035
rradius 28.7752
rwrist 1.64287
rhand -17.9233 -9.74466
rfingers 7.12502
rthumb 8.3444 -39.5598
lclavicle -6.08778e-015 3.18055e-015
lhumerus -35.0002 10.9112 81.6238
lradius 22.4021
lwrist 16.0403
lhand -17.8378 13.0992
lfingers 7.12502
lthumb 8.42683 42.9111
rfemur -56.3093 10.0208 20.0968
rtibia 33.9982
rfoot -32.0676 -13.2019
rtoes -17.0465
lfemur 18.3032 11.2698 -26.6451
ltibia -9.54166e-015
lfoot -10.4369 2.98663
ltoes 3.5592
467
root 43.432 16.4467 -4.61784 -12.6415 -79.4309 6.66479
lowerback 4.95144 -0.855384 -1.55178
upperback 3.40413 -1.27607 -2.1852
thorax 0.706398 -0.676416 -1.31931
lowerneck -5.19418 0.357364 2.96086
upperneck 8.92758 0.0485923 1.16405
head 3.82968 0.15245 -0.135804
rclavicle 1.30452e-014 -1.59028e-015
rhumerus -37.6796 -11.1081 -86.776
rradius 28.8111
rwrist 1.63216
rhand -17.919 -9.77411
rfingers 7.12502
rthumb 8.34854 -39.5891
lclavicle 1.30452e-014 -1.59028e-015
lhumerus -35.0414 10.905 81.5892
lradius 22.3741
lwrist 16.0076
lhand -17.8492 13.0702
lfingers 7.12502
lthumb 8.41588 42.8825
rfemur -56.1868 10.0159 20.0882
rtibia 33.915
rfoot -32.0874 -13.1831
rtoes -17.0769
lfemur 18.3542 11.3188 -26.6943
ltibia -4.29375e-014
lfoot -10.4871 2.98493
ltoes 3.41728
468
root 43.4072 16.4416 -4.61473 -12.9132 -79.4641 6.96799
lowerback 4.90384 -0.838149 -1.5907
upperback 3.39684 -1.25331 -2.20284
thorax 0.726145 -0.665506 -1.31736
lowerneck -5.15776 0.36382 2.99911
upperneck 8.93016 0.059954 1.1124
head 3.82373 0.156932 -0.159091
rclavicle 1.91827e-014 1.27222e-014
rhumerus -37.6199 -11.0124 -86.8436
rradius 28.8446
rwrist 1.62333
rhand -17.9127 -9.79502
rfingers 7.12502
rthumb 8.35461 -39.6098
lclavicle 1.91827e-014 1.27222e-014
lhumerus -35.0645 10.9149 81.5546
lradius 22.3308
lwrist 15.9602
lhand -17.8514 13.0564
lfingers 7.12502
lthumb 8.41374 42.8688
rfemur -56.0436 10.023 20.0759
rtibia 33.831
rfoot -32.1214 -13.1834
rtoes -17.1012
lfemur 18.4217 11.3598 -26.7246
ltibia -1.27222e-014
lfoot -10.545 2.97419
ltoes 3.26618
